<svg width="30" height="28" viewBox="0 0 30 28" fill="none" xmlns="http://www.w3.org/2000/svg">
<path fill-rule="evenodd" clip-rule="evenodd" d="M7.89319 21.4997C12.87 20.7997 16.2967 20.8599 21.28 21.5242C21.6409 21.5746 21.9707 21.749 22.2084 22.0152C22.4462 22.2814 22.5759 22.6214 22.5735 22.9725C22.5735 23.3085 22.4535 23.6347 22.2369 23.8895C21.8592 24.3337 21.4723 24.7706 21.0765 25.1999H22.9966C23.1173 25.0613 23.2388 24.9199 23.3616 24.7764C23.7929 24.2672 24.0282 23.6302 24.0276 22.9732C24.0276 21.5557 22.953 20.3342 21.4792 20.1382C16.3781 19.4585 12.8126 19.3934 7.68307 20.1151C6.19403 20.3244 5.12378 21.5648 5.12378 22.9921C5.12378 23.6256 5.33827 24.2521 5.7447 24.7596C5.86467 24.9094 5.98318 25.0564 6.10096 25.2006H7.97463C7.60631 24.7761 7.24706 24.3443 6.89711 23.9056C6.68914 23.643 6.57695 23.3216 6.57792 22.9914C6.57792 22.2375 7.14068 21.6054 7.89319 21.4997ZM14.5757 14.6999C15.1486 14.6999 15.7159 14.5913 16.2451 14.3802C16.7744 14.1691 17.2553 13.8598 17.6604 13.4698C18.0655 13.0797 18.3868 12.6167 18.6061 12.1072C18.8253 11.5976 18.9381 11.0515 18.9381 10.4999C18.9381 9.94835 18.8253 9.4022 18.6061 8.89263C18.3868 8.38306 18.0655 7.92006 17.6604 7.53005C17.2553 7.14005 16.7744 6.83068 16.2451 6.61961C15.7159 6.40854 15.1486 6.2999 14.5757 6.2999C13.4187 6.2999 12.3091 6.7424 11.491 7.53005C10.6729 8.31771 10.2133 9.38599 10.2133 10.4999C10.2133 11.6138 10.6729 12.6821 11.491 13.4698C12.3091 14.2574 13.4187 14.6999 14.5757 14.6999ZM14.5757 16.0999C16.1184 16.0999 17.5978 15.5099 18.6886 14.4597C19.7795 13.4095 20.3923 11.9851 20.3923 10.4999C20.3923 9.01469 19.7795 7.59031 18.6886 6.5401C17.5978 5.4899 16.1184 4.8999 14.5757 4.8999C13.0331 4.8999 11.5536 5.4899 10.4628 6.5401C9.37195 7.59031 8.75914 9.01469 8.75914 10.4999C8.75914 11.9851 9.37195 13.4095 10.4628 14.4597C11.5536 15.5099 13.0331 16.0999 14.5757 16.0999Z" fill="#A2A2A2"/>
<path fill-rule="evenodd" clip-rule="evenodd" d="M14.5756 26.6C21.8034 26.6 27.6629 20.9587 27.6629 14C27.6629 7.0413 21.8034 1.4 14.5756 1.4C7.34779 1.4 1.48832 7.0413 1.48832 14C1.48832 20.9587 7.34779 26.6 14.5756 26.6ZM14.5756 28C22.6068 28 29.117 21.7322 29.117 14C29.117 6.2678 22.6068 0 14.5756 0C6.54438 0 0.0341797 6.2678 0.0341797 14C0.0341797 21.7322 6.54438 28 14.5756 28Z" fill="#A2A2A2"/>
</svg>
