<svg width="25" height="23" viewBox="0 0 25 23" fill="none" xmlns="http://www.w3.org/2000/svg">
<g clip-path="url(#clip0_34_211)">
<path d="M21.1 1.4375C21.499 1.4375 21.8816 1.58895 22.1637 1.85853C22.4458 2.12812 22.6043 2.49375 22.6043 2.875V20.125C22.6043 20.5062 22.4458 20.8719 22.1637 21.1415C21.8816 21.411 21.499 21.5625 21.1 21.5625H3.04861C2.64965 21.5625 2.26703 21.411 1.98492 21.1415C1.70281 20.8719 1.54432 20.5062 1.54432 20.125V2.875C1.54432 2.49375 1.70281 2.12812 1.98492 1.85853C2.26703 1.58895 2.64965 1.4375 3.04861 1.4375H21.1ZM3.04861 0C2.25069 0 1.48545 0.302901 0.921229 0.842068C0.357013 1.38124 0.0400391 2.1125 0.0400391 2.875L0.0400391 20.125C0.0400391 20.8875 0.357013 21.6188 0.921229 22.1579C1.48545 22.6971 2.25069 23 3.04861 23H21.1C21.898 23 22.6632 22.6971 23.2274 22.1579C23.7916 21.6188 24.1086 20.8875 24.1086 20.125V2.875C24.1086 2.1125 23.7916 1.38124 23.2274 0.842068C22.6632 0.302901 21.898 0 21.1 0L3.04861 0Z" fill="#A1A1A1"/>
<path d="M10.573 15.8125C10.573 15.6237 10.6119 15.4368 10.6875 15.2624C10.7631 15.088 10.8739 14.9295 11.0136 14.796C11.1533 14.6626 11.3191 14.5567 11.5016 14.4844C11.6841 14.4122 11.8797 14.375 12.0773 14.375C12.2748 14.375 12.4704 14.4122 12.6529 14.4844C12.8355 14.5567 13.0013 14.6626 13.141 14.796C13.2807 14.9295 13.3915 15.088 13.4671 15.2624C13.5427 15.4368 13.5816 15.6237 13.5816 15.8125C13.5816 16.1937 13.4231 16.5594 13.141 16.829C12.8589 17.0985 12.4762 17.25 12.0773 17.25C11.6783 17.25 11.2957 17.0985 11.0136 16.829C10.7315 16.5594 10.573 16.1937 10.573 15.8125ZM10.7204 7.18031C10.7004 6.99896 10.7205 6.81561 10.7794 6.64215C10.8383 6.4687 10.9347 6.30902 11.0624 6.17347C11.19 6.03792 11.3461 5.92954 11.5204 5.85534C11.6947 5.78115 11.8834 5.74281 12.0743 5.74281C12.2651 5.74281 12.4538 5.78115 12.6281 5.85534C12.8025 5.92954 12.9585 6.03792 13.0862 6.17347C13.2138 6.30902 13.3103 6.4687 13.3692 6.64215C13.4281 6.81561 13.4482 6.99896 13.4281 7.18031L12.9016 12.2216C12.8839 12.4197 12.7891 12.6042 12.6359 12.7386C12.4827 12.873 12.2823 12.9476 12.0743 12.9476C11.8663 12.9476 11.6658 12.873 11.5126 12.7386C11.3594 12.6042 11.2646 12.4197 11.2469 12.2216L10.7204 7.18031Z" fill="#A1A1A1"/>
</g>
<defs>
<clipPath id="clip0_34_211">
<rect width="24.0686" height="23" fill="white" transform="translate(0.0400391)"/>
</clipPath>
</defs>
</svg>
