<svg width="25" height="23" viewBox="0 0 25 23" fill="none" xmlns="http://www.w3.org/2000/svg">
<path d="M11.9796 10.5417H22.1084V14.3788C22.1084 14.9021 21.6571 15.3333 21.1056 15.3333C20.554 15.3333 20.1027 14.9021 20.1027 14.3788V12.4583H18.097V14.375C18.097 14.9021 17.6457 15.3333 17.0941 15.3333C16.5426 15.3333 16.0913 14.9021 16.0913 14.375V12.4583H11.9796C11.7279 13.6192 11.035 14.6498 10.0348 15.3511C9.03447 16.0523 7.79773 16.3745 6.56341 16.2553C5.32909 16.1362 4.18476 15.5842 3.35143 14.7059C2.5181 13.8277 2.05489 12.6855 2.05127 11.5C2.05002 10.3117 2.51086 9.16537 3.34433 8.28351C4.1778 7.40166 5.32443 6.8472 6.56163 6.72778C7.79882 6.60836 9.03833 6.93249 10.0395 7.63726C11.0407 8.34203 11.7321 9.37714 11.9796 10.5417ZM7.06556 14.375C7.86348 14.375 8.62872 14.0721 9.19294 13.5329C9.75716 12.9938 10.0741 12.2625 10.0741 11.5C10.0741 10.7375 9.75716 10.0062 9.19294 9.46707C8.62872 8.9279 7.86348 8.625 7.06556 8.625C6.26763 8.625 5.50239 8.9279 4.93818 9.46707C4.37396 10.0062 4.05699 10.7375 4.05699 11.5C4.05699 12.2625 4.37396 12.9938 4.93818 13.5329C5.50239 14.0721 6.26763 14.375 7.06556 14.375Z" fill="#A2A2A2"/>
</svg>
