<svg width="34" height="32" viewBox="0 0 34 32" fill="none" xmlns="http://www.w3.org/2000/svg">
<path d="M28.6876 16.76V15.23L30.7276 13.55C31.1036 13.2381 31.3504 12.811 31.4243 12.3444C31.4982 11.8778 31.3944 11.4016 31.1313 11L28.6238 7C28.4375 6.69626 28.1696 6.44398 27.847 6.26846C27.5243 6.09295 27.1584 6.00036 26.7857 6C26.5548 5.99834 26.3251 6.03211 26.1057 6.1L23.5238 6.92C23.0781 6.64121 22.6131 6.39066 22.132 6.17L21.5901 3.65C21.4929 3.18961 21.2268 2.77604 20.8383 2.4817C20.4498 2.18737 19.9637 2.03101 19.4651 2.04H14.4926C13.994 2.03101 13.5078 2.18737 13.1194 2.4817C12.7309 2.77604 12.4647 3.18961 12.3676 3.65L11.8257 6.17C11.3411 6.3906 10.8726 6.64115 10.4232 6.92L7.89446 6.06C7.67271 6.00563 7.44308 5.98536 7.21446 6C6.84181 6.00036 6.47582 6.09295 6.1532 6.26846C5.83057 6.44398 5.56266 6.69626 5.37634 7L2.86884 11C2.62083 11.401 2.52868 11.8707 2.60815 12.3286C2.68762 12.7865 2.93378 13.2041 3.30446 13.51L5.31259 15.24V16.77L3.30446 18.45C2.92331 18.758 2.67042 19.1831 2.59067 19.6499C2.51092 20.1168 2.60947 20.5951 2.86884 21L5.37634 25C5.56266 25.3037 5.83057 25.556 6.1532 25.7315C6.47582 25.9071 6.84181 25.9996 7.21446 26C7.44539 26.0017 7.67507 25.9679 7.89446 25.9L10.4763 25.08C10.9221 25.3588 11.3871 25.6093 11.8682 25.83L12.4101 28.35C12.5072 28.8104 12.7734 29.224 13.1619 29.5183C13.5503 29.8126 14.0365 29.969 14.5351 29.96H19.5501C20.0487 29.969 20.5348 29.8126 20.9233 29.5183C21.3118 29.224 21.5779 28.8104 21.6751 28.35L22.217 25.83C22.7015 25.6094 23.1701 25.3589 23.6195 25.08L26.1907 25.9C26.4101 25.9679 26.6398 26.0017 26.8707 26C27.2434 25.9996 27.6093 25.9071 27.932 25.7315C28.2546 25.556 28.5225 25.3037 28.7088 25L31.1313 21C31.3793 20.599 31.4715 20.1293 31.392 19.6714C31.3125 19.2135 31.0664 18.7959 30.6957 18.49L28.6876 16.76ZM26.7857 24L23.1413 22.84C22.2882 23.5201 21.3132 24.0517 20.262 24.41L19.5076 28H14.4926L13.7382 24.45C12.6953 24.0816 11.7255 23.5509 10.8695 22.88L7.21446 24L4.70696 20L7.59696 17.6C7.4005 16.5649 7.4005 15.5051 7.59696 14.47L4.70696 12L7.21446 8L10.8588 9.16C11.712 8.47989 12.687 7.94826 13.7382 7.59L14.4926 4H19.5076L20.262 7.55C21.3049 7.91842 22.2746 8.44914 23.1307 9.12L26.7857 8L29.2932 12L26.4032 14.4C26.5997 15.4351 26.5997 16.4949 26.4032 17.53L29.2932 20L26.7857 24Z" fill="#A2A2A2"/>
<path d="M17 22C15.7391 22 14.5066 21.6481 13.4582 20.9888C12.4099 20.3295 11.5928 19.3925 11.1103 18.2961C10.6278 17.1997 10.5015 15.9933 10.7475 14.8295C10.9935 13.6656 11.6006 12.5965 12.4922 11.7574C13.3838 10.9182 14.5197 10.3468 15.7563 10.1153C16.9929 9.88378 18.2747 10.0026 19.4396 10.4567C20.6045 10.9109 21.6001 11.6799 22.3006 12.6666C23.0011 13.6533 23.375 14.8133 23.375 16C23.3835 16.7902 23.2245 17.574 22.9071 18.3056C22.5897 19.0371 22.1205 19.7018 21.5268 20.2605C20.9331 20.8193 20.227 21.2609 19.4497 21.5596C18.6724 21.8583 17.8395 22.008 17 22ZM17 12C16.4383 11.9877 15.8798 12.0827 15.3582 12.2794C14.8367 12.4761 14.363 12.7702 13.9657 13.1442C13.5684 13.5181 13.2558 13.9639 13.0469 14.4548C12.8379 14.9457 12.7369 15.4713 12.75 16C12.7369 16.5287 12.8379 17.0543 13.0469 17.5452C13.2558 18.0361 13.5684 18.4819 13.9657 18.8558C14.363 19.2298 14.8367 19.524 15.3582 19.7206C15.8798 19.9173 16.4383 20.0123 17 20C17.5617 20.0123 18.1202 19.9173 18.6418 19.7206C19.1633 19.524 19.6371 19.2298 20.0343 18.8558C20.4316 18.4819 20.7442 18.0361 20.9531 17.5452C21.1621 17.0543 21.2631 16.5287 21.25 16C21.2631 15.4713 21.1621 14.9457 20.9531 14.4548C20.7442 13.9639 20.4316 13.5181 20.0343 13.1442C19.6371 12.7702 19.1633 12.4761 18.6418 12.2794C18.1202 12.0827 17.5617 11.9877 17 12Z" fill="#A2A2A2"/>
</svg>
